# xmcd
#
# Track frame offsets: 
#        150
#        11501
#        23512
#        34653
#        44693
#        57030
#        66782
#        84741
#        95513
#        108061
#        120469
#        131622
#        143820
#        155818
#        167761
#        184389
#        196855
#        206467
#
# Disc length: 2907 seconds
#
# Revision: 2
# Processed by: cddbd v1.5.2PL0 Copyright (c) Steve Scherf et al.
# Submitted via: ExactAudioCopy v0.99pb4
#
DISCID=f00b5912
DTITLE=John Lee Hooker - Boogie Man
DYEAR=2000
DGENRE=Blues
TTITLE0=Boogie Chillen 2
TTITLE1=I'm In The Mood
TTITLE2=Boom Boom
TTITLE3=Dimples
TTITLE4=Hobo Blues
TTITLE5=Dusty Road
TTITLE6=House Rent Boogie
TTITLE7=No Shoes
TTITLE8=I'm So Excited
TTITLE9=Baby Lee
TTITLE10=Bottle Up And Go
TTITLE11=Drug Store Woman
TTITLE12=Frisco
TTITLE13=Whiskey And Wimmen
TTITLE14=Process
TTITLE15=Trouble Blues
TTITLE16=Onions
TTITLE17=Good Rockin' Mama
EXTD=
EXTT0=
EXTT1=
EXTT2=
EXTT3=
EXTT4=
EXTT5=
EXTT6=
EXTT7=
EXTT8=
EXTT9=
EXTT10=
EXTT11=
EXTT12=
EXTT13=
EXTT14=
EXTT15=
EXTT16=
EXTT17=
PLAYORDER=
